<?xml version="1.0" encoding="UTF-8"?>
<svg version="1.1" xmlns="http://www.w3.org/2000/svg" width="500" height="500" >
<path d="M0 0 C165 0 330 0 500 0 C500 165 500 330 500 500 C335 500 170 500 0 500 C0 335 0 170 0 0 Z " fill="#FEFEFE" transform="translate(0,0)"/>
<path d="M0 0 C3.70377102 7.9366522 6.58964491 16.15532633 6 25 C0.25 28 0.25 28 -2 28 C-1.67 30.64 -1.34 33.28 -1 36 C0.05707153 35.75878418 0.05707153 35.75878418 1.13549805 35.51269531 C20.84043514 31.98585922 41.32453082 35.70022701 60 42 C60.309375 41.21625 60.61875 40.4325 60.9375 39.625 C62 37 62 37 63 35 C62.236875 34.71125 61.47375 34.4225 60.6875 34.125 C58 33 58 33 55 31 C55.64428248 27.88031641 56.72242877 25.44126547 58.28515625 22.671875 C58.73310547 21.87265625 59.18105469 21.0734375 59.64257812 20.25 C60.34543945 19.0125 60.34543945 19.0125 61.0625 17.75 C61.53494141 16.90953125 62.00738281 16.0690625 62.49414062 15.203125 C63.65857961 13.13301124 64.8273145 11.06544986 66 9 C70.98397052 9.49343556 74.47122133 10.47838527 78.7734375 13.02734375 C79.83820313 13.65036377 80.90296875 14.27338379 82 14.9152832 C83.11375 15.58261475 84.2275 16.24994629 85.375 16.9375 C86.53325623 17.62105001 87.69211535 18.30357942 88.8515625 18.98510742 C91.15954241 20.34390002 93.46294248 21.70961602 95.76464844 23.07910156 C98.63859643 24.78542686 101.52210782 26.47287907 104.4140625 28.1484375 C105.94279635 29.03630681 107.47144924 29.92431552 109 30.8125 C109.69270996 31.2139624 110.38541992 31.6154248 111.09912109 32.02905273 C113.6606463 33.53221337 115.89026539 34.89026539 118 37 C117.82589339 42.14581751 114.68455015 46.45024579 112.125 50.75 C111.67769531 51.52988281 111.23039062 52.30976562 110.76953125 53.11328125 C110.33253906 53.85449219 109.89554687 54.59570312 109.4453125 55.359375 C109.04844238 56.03452148 108.65157227 56.70966797 108.24267578 57.40527344 C107 59 107 59 104 60 C101.73828125 59.00390625 101.73828125 59.00390625 99.3125 57.5625 C98.10013672 56.85287109 98.10013672 56.85287109 96.86328125 56.12890625 C95.94095703 55.57009766 95.94095703 55.57009766 95 55 C93.92474806 57.65228812 92.90543849 60.28368454 92 63 C92.56460937 63.24234375 93.12921875 63.4846875 93.7109375 63.734375 C103.29363014 69.03265557 110.20283246 79.97846483 116 89 C116.45987305 89.7017334 116.91974609 90.4034668 117.39355469 91.12646484 C125.45285257 103.67833328 125.45285257 103.67833328 124.4453125 108.84375 C123.0625 111.25 123.0625 111.25 121.4453125 113.546875 C118.22355733 119.01515135 119.26940149 125.87561695 120.6640625 131.83984375 C122.68543628 137.68425055 125.56036925 141.92217357 131 145 C135.46652782 146.77080041 138.99422476 147.15086629 143.75 146.4375 C148.94122404 144.14138168 151.2521284 141.46995453 153.8125 136.4375 C155.921518 130.03772124 156.49519566 122.19007103 153.5 116 C147.85855054 109.23026065 140.41155899 108.17514427 132 107 C131.67 105.35 131.34 103.7 131 102 C139.74325224 101.38331293 146.80169608 101.58500103 154 107 C159.06956333 112.22765782 162.28006168 117.85406292 162.3125 125.25 C162.08612112 135.18403777 158.20866622 143.57430602 151.3125 150.7578125 C150.879375 151.16773438 150.44625 151.57765625 150 152 C150.9075 152.680625 151.815 153.36125 152.75 154.0625 C156.73130916 157.43057434 159.44559135 160.91115179 160.3828125 166.1328125 C160.76618368 173.46798103 158.00826027 179.66079588 153.625 185.4375 C148.67175365 190.90670951 142.06288608 194.87225427 136 199 C136.54269531 199.58007812 137.08539063 200.16015625 137.64453125 200.7578125 C147.64956355 211.68222614 147.64956355 211.68222614 147.28515625 219.984375 C146.19044766 227.72231519 141.57107716 232.14544411 135.625 236.625 C132.25279431 238.97442682 128.82557627 240.51661328 125 242 C125.92232422 242.67095703 125.92232422 242.67095703 126.86328125 243.35546875 C135.54812574 249.85178784 135.54812574 249.85178784 137 254 C137 258.56693665 136.13443552 262.12117839 132.94140625 265.5234375 C122.55983348 273.41928158 107.44229678 276.29074411 94.66015625 275.90625 C79.8222992 275.56221397 73.22336053 279.43095758 62.28466797 289.10888672 C41.68722038 306.15823797 14.62559849 315.06491588 -11 321 C-11 325.29 -11 329.58 -11 334 C-22.55 334 -34.1 334 -46 334 C-43.66151858 339.91731018 -43.66151858 339.91731018 -40 342 C-33.37076375 342.90666286 -28.03569533 341.68253126 -22 339 C-20.35 341.97 -18.7 344.94 -17 348 C-25.45094246 352.91920531 -32.48730849 355.48243745 -42.3359375 353.5390625 C-48.79311311 351.66582043 -54.00588146 348.6106525 -57.3203125 342.609375 C-58.30111515 340.42828939 -59.19461437 338.25107786 -60 336 C-61.82885996 337.69327727 -63.63670184 339.40230337 -65.4375 341.125 C-65.95376953 341.599375 -66.47003906 342.07375 -67.00195312 342.5625 C-70.43711221 345.88539899 -71.72362985 348.22375688 -72 353 C-73.79090253 353.19466332 -75.58276505 353.38051213 -77.375 353.5625 C-78.37273437 353.66691406 -79.37046875 353.77132813 -80.3984375 353.87890625 C-83 354 -83 354 -85 353 C-84.65427166 345.1519666 -83.17294709 337.72664533 -81.37207031 330.10791016 C-80.64296939 327.00622119 -80 324.19881626 -80 321 C-89.53388339 332.65259848 -89.53388339 332.65259848 -98.828125 344.49609375 C-100 346 -100 346 -101 347 C-102.99958364 347.04080783 -105.00045254 347.04254356 -107 347 C-107.32798584 346.21761963 -107.65597168 345.43523926 -107.99389648 344.62915039 C-109.20890103 341.73411828 -110.42608696 338.84001626 -111.64477539 335.9465332 C-112.1723493 334.69267184 -112.69904531 333.43844073 -113.22485352 332.18383789 C-113.97963701 330.38331289 -114.73781418 328.5842117 -115.49609375 326.78515625 C-115.95169678 325.70113525 -116.4072998 324.61711426 -116.87670898 323.50024414 C-117.77356552 321.10802783 -117.77356552 321.10802783 -119 320 C-119.176521 320.96413818 -119.35304199 321.92827637 -119.53491211 322.92163086 C-120.18883665 326.48747023 -120.84789919 330.05234364 -121.50854492 333.61694336 C-121.79413592 335.16193054 -122.0783196 336.70717854 -122.36108398 338.25268555 C-122.76699904 340.46993435 -123.1779121 342.68620592 -123.58984375 344.90234375 C-123.71592514 345.5971434 -123.84200653 346.29194305 -123.97190857 347.00779724 C-124.88612829 351.88612829 -124.88612829 351.88612829 -126 353 C-128.01964199 353.07244053 -130.04167124 353.08377188 -132.0625 353.0625 C-133.16722656 353.05347656 -134.27195313 353.04445313 -135.41015625 353.03515625 C-136.69212891 353.01775391 -136.69212891 353.01775391 -138 353 C-137.42906183 345.98312496 -136.3768318 339.179711 -134.96875 332.28515625 C-134.77277222 331.30759872 -134.57679443 330.3300412 -134.37487793 329.32286072 C-133.96361641 327.27622467 -133.55005504 325.23004952 -133.13427734 323.18432617 C-132.49700354 320.04775184 -131.86706398 316.90977081 -131.23828125 313.77148438 C-130.83636108 311.77595631 -130.434032 309.78051054 -130.03125 307.78515625 C-129.84268433 306.84769058 -129.65411865 305.91022491 -129.45983887 304.9443512 C-129.28295532 304.07592087 -129.10607178 303.20749054 -128.92382812 302.31274414 C-128.76918091 301.55014786 -128.61453369 300.78755157 -128.4552002 300.00184631 C-128 298 -128 298 -127 295 C-123.04 295 -119.08 295 -115 295 C-113.14425856 299.66137345 -111.29296109 304.32447725 -109.44580078 308.98925781 C-108.81649348 310.57665868 -108.18596404 312.16357559 -107.55419922 313.75 C-106.64751319 316.02739033 -105.74520402 318.30647201 -104.84375 320.5859375 C-104.4172113 321.65320572 -104.4172113 321.65320572 -103.98205566 322.74203491 C-102 327.77225659 -102 327.77225659 -102 330 C-98.28343129 326.42330215 -95.02339503 322.65108486 -91.875 318.5625 C-90.91541584 317.32938719 -89.95577877 316.09631556 -88.99609375 314.86328125 C-88.50608887 314.23115723 -88.01608398 313.5990332 -87.51123047 312.94775391 C-84.996891 309.70713997 -82.46782958 306.47813318 -79.9375 303.25 C-79.47263184 302.65388916 -79.00776367 302.05777832 -78.52880859 301.44360352 C-76.76411219 299.19002522 -75.02610332 297.02610332 -73 295 C-70.3984375 294.8046875 -70.3984375 294.8046875 -67.375 294.875 C-66.37210937 294.89304687 -65.36921875 294.91109375 -64.3359375 294.9296875 C-63.17964844 294.96449219 -63.17964844 294.96449219 -62 295 C-61.86770481 299.92484601 -62.30416365 304.32258707 -63.3125 309.140625 C-63.44567627 309.78948669 -63.57885254 310.43834839 -63.71606445 311.10687256 C-64.13757918 313.15598477 -64.56819542 315.20303375 -65 317.25 C-65.43040222 319.31150147 -65.8588021 321.37337955 -66.28393555 323.43597412 C-66.66818052 325.29705176 -67.05853866 327.15686415 -67.44921875 329.01660156 C-68.09077374 331.98605546 -68.09077374 331.98605546 -68 335 C-60.2624781 327.80258715 -60.2624781 327.80258715 -54.98046875 318.81640625 C-52.11606115 313.5098344 -46.39147621 310.24429871 -41 308 C-38.26933858 307.68880553 -35.84401987 307.52356031 -33.125 307.5625 C-32.42044678 307.56644775 -31.71589355 307.57039551 -30.98999023 307.57446289 C-25.19486714 307.73463803 -20.24334302 308.75665698 -16 313 C-9.07096383 313.38763839 -3.2134807 312.38029508 3.4375 310.5 C4.39688477 310.23155273 5.35626953 309.96310547 6.34472656 309.68652344 C15.66170737 306.97382846 24.34673571 303.36634379 33 299 C34.09707275 298.45134277 34.09707275 298.45134277 35.21630859 297.89160156 C47.75133293 291.52678055 58.89166638 283.57948633 70 275 C69.566875 274.40832031 69.13375 273.81664062 68.6875 273.20703125 C68.130625 272.41683594 67.57375 271.62664062 67 270.8125 C66.443125 270.03519531 65.88625 269.25789063 65.3125 268.45703125 C63.848631 265.71663363 63.73919787 264.05899163 64 261 C62.86304688 261.39832031 61.72609375 261.79664063 60.5546875 262.20703125 C51.11019661 265.46647976 41.85776666 268.25963013 32 270 C31.27941406 270.13148438 30.55882812 270.26296875 29.81640625 270.3984375 C1.35063274 274.77778727 -28.80227483 265.59056247 -52.01171875 249.265625 C-55.49632822 246.68045055 -58.78131728 243.90739228 -62 241 C-62.52384277 240.52981445 -63.04768555 240.05962891 -63.58740234 239.57519531 C-86.06260286 219.06492583 -99.37431417 190.54553478 -101.28125 160.13671875 C-100.898688 155.87008977 -99.34769668 153.70513135 -96.34765625 150.74609375 C-94.74794921 149.05437156 -94.74794921 149.05437156 -95.06713867 146.62792969 C-94.9893212 143.58201235 -94.40083859 142.59456025 -92.578125 140.20703125 C-92.0531543 139.50360596 -91.52818359 138.80018066 -90.98730469 138.07543945 C-90.41399414 137.32866943 -89.84068359 136.58189941 -89.25 135.8125 C-88.04941752 134.19989794 -86.8515693 132.58525718 -85.65625 130.96875 C-85.04523438 130.14503906 -84.43421875 129.32132813 -83.8046875 128.47265625 C-61.73830027 99.07679259 -61.73830027 99.07679259 -50 65 C-49.89945313 64.15566406 -49.79890625 63.31132813 -49.6953125 62.44140625 C-48.97207826 51.54949858 -53.76404286 42.53056954 -60.625 34.3125 C-65.39689068 29.31642654 -69.64711835 27.17961866 -76.5 26.8125 C-80.61245717 27.00654344 -80.61245717 27.00654344 -84 29 C-85.01228965 31.3146867 -85.7760541 33.46956757 -86.5 35.875 C-89.57740551 45.29262737 -93.43572395 54.32354908 -97.40869141 63.39428711 C-99.81789904 68.89633635 -102.18482877 74.38344578 -104.28515625 80.01171875 C-108.38385127 90.80155953 -112.63694053 97.51112814 -121.49609375 104.90234375 C-131.22238924 113.13842707 -138.21845548 125.31899858 -143 137 C-143.27593994 137.65871094 -143.55187988 138.31742188 -143.83618164 138.99609375 C-146.93161571 147.53674028 -146.50128932 156.41704933 -146.4375 165.375 C-146.43443344 166.66041687 -146.43443344 166.66041687 -146.43130493 167.97180176 C-146.35945641 186.5160572 -144.82946045 204.76826516 -139.64038086 222.65820312 C-138.70743841 226.06986305 -138.32702482 228.50052909 -139 232 C-141.49422509 235.35586648 -144.72059952 237.89201207 -147.8659668 240.6159668 C-152.61926271 244.74242755 -157.23838065 248.98911015 -161.8125 253.3125 C-163.20941302 254.62133116 -164.60654944 255.92992392 -166.00390625 257.23828125 C-168.46826604 259.55012175 -170.91386633 261.87843151 -173.33984375 264.23046875 C-174.30972346 265.15382692 -175.27976286 266.07701741 -176.25 267 C-177.49523437 268.2065625 -177.49523437 268.2065625 -178.765625 269.4375 C-181 271 -181 271 -183.296875 270.75 C-184.13992187 270.37875 -184.13992187 270.37875 -185 270 C-184.8560984 265.25124732 -182.52016779 263.13691323 -179.27734375 260.0390625 C-177.28591384 258.25599833 -175.27534652 256.49942983 -173.2578125 254.74609375 C-168.35257097 250.46556835 -163.63622613 245.99569459 -158.91210938 241.51757812 C-158.24888672 240.89173828 -157.58566406 240.26589844 -156.90234375 239.62109375 C-156.25894043 239.0060498 -155.61553711 238.39100586 -154.95263672 237.75732422 C-153 236 -153 236 -150.91064453 234.48095703 C-149.01071995 233.08604588 -147.44962034 231.8598629 -146 230 C-145.95033153 226.82784021 -146.20486301 224.9684236 -147 222 C-147.30925646 220.37398489 -147.60964383 218.74626437 -147.90234375 217.1171875 C-148.41285066 214.51184187 -148.93088575 211.90809639 -149.45117188 209.3046875 C-151.90610659 196.75931769 -153.35315208 184.58596547 -153.31567383 171.81420898 C-153.31250734 169.56770473 -153.33611032 167.32251553 -153.36132812 165.07617188 C-153.47934823 138.06452873 -143.10324915 117.6960589 -124.62402344 98.52294922 C-123 97 -123 97 -120.10449219 94.92163086 C-116.04873101 91.55287455 -114.44244929 87.23195115 -112.46875 82.44921875 C-111.87024231 81.05181206 -111.87024231 81.05181206 -111.25964355 79.62617493 C-109.99110615 76.65285814 -108.74572701 73.67043414 -107.5 70.6875 C-106.6641764 68.72530769 -105.82694895 66.76371276 -104.98828125 64.80273438 C-100.8503538 55.07911496 -96.88534924 45.31677487 -93.27148438 35.38598633 C-89.11269008 24.31104046 -89.11269008 24.31104046 -83 21 C-76.45233234 18.81744411 -71.02079966 20.14350609 -65 23 C-59.90211361 25.85481638 -56.57799731 29.48309559 -53 34 C-53.20496094 33.11957031 -53.40992188 32.23914062 -53.62109375 31.33203125 C-53.89050781 30.17058594 -54.15992188 29.00914063 -54.4375 27.8125 C-54.70433594 26.66394531 -54.97117188 25.51539062 -55.24609375 24.33203125 C-55.49488281 23.23246094 -55.74367187 22.13289063 -56 21 C-56.23847656 20.07574219 -56.47695312 19.15148437 -56.72265625 18.19921875 C-56.81417969 17.47347656 -56.90570313 16.74773438 -57 16 C-54.87472894 13.87472894 -53.96938349 13.5290964 -51.16015625 12.73828125 C-50.35682861 12.50971436 -49.55350098 12.28114746 -48.72583008 12.0456543 C-47.40748169 11.68274292 -47.40748169 11.68274292 -46.0625 11.3125 C-45.15330811 11.05702393 -44.24411621 10.80154785 -43.30737305 10.53833008 C-34.14349732 7.98790848 -24.93192995 5.61570349 -15.71313477 3.27270508 C-14.60768311 2.99064209 -13.50223145 2.7085791 -12.36328125 2.41796875 C-11.37626221 2.16813232 -10.38924316 1.9182959 -9.37231445 1.66088867 C-3.11606548 -0.08200172 -3.11606548 -0.08200172 0 0 Z " fill="#459470" transform="translate(299,20)"/>
<path d="M0 0 C17.60545672 13.90272177 28.77657042 32.37035255 32.625 54.5625 C33.02930454 59.13568438 33.09119691 63.66110328 33.0625 68.25 C33.08248047 69.39533203 33.10246094 70.54066406 33.12304688 71.72070312 C33.11926508 78.33506482 32.3824341 83.44587136 29.5090332 89.43408203 C28.57843089 91.67462082 28.3888432 93.34068117 28.375 95.75 C27.54750997 106.60359014 18.64917459 117.81123895 11.625 125.5625 C10.87605469 126.40425781 10.12710938 127.24601563 9.35546875 128.11328125 C0.42892726 137.61665902 -10.41274559 143.62689267 -22.375 148.5625 C-23.05949219 148.85898438 -23.74398437 149.15546875 -24.44921875 149.4609375 C-42.05376906 156.67416096 -64.93580373 155.77548512 -82.4765625 148.71679688 C-105.78193578 138.59056918 -122.32375237 121.98391804 -131.86328125 98.50390625 C-139.76695153 78.20860067 -138.67129959 53.43216605 -130.25 33.4375 C-120.38658416 11.52496498 -103.25559861 -3.24775325 -81.375 -12.4375 C-53.78099623 -22.56098618 -23.52291479 -17.21841677 0 0 Z " fill="#FDFEFE" transform="translate(367.375,104.4375)"/>
<path d="M0 0 C0.33 0.66 0.66 1.32 1 2 C0.29622388 3.96285238 -0.48997813 5.8963716 -1.3125 7.8125 C-10.24190242 30.58247616 -7.08361962 56.13321929 2.21044922 78.22558594 C11.55675055 99.23019883 29.51945854 113.6874193 50 123 C50.61617188 123.28488281 51.23234375 123.56976563 51.8671875 123.86328125 C73.08764568 132.74308671 98.09787134 130.39951311 118.93798828 121.90039062 C127.81032921 118.02622613 135.72186829 112.81643263 143.109375 106.56640625 C145 105 145 105 147 104 C147.97699649 108.61721305 148.21343606 112.41026694 147 117 C131.76694043 132.59728181 105.24927715 138.72001015 84.34130859 139.2878418 C56.37500958 139.59045549 31.52700529 128.33080291 11.5625 109 C-8.81057009 88.56780041 -16.36823811 62.50615337 -16.88378906 34.21264648 C-16.68408534 22.6652852 -13.22413259 15.90354967 -5.45507812 7.62158203 C-3.33039446 5.25377182 -1.69169882 2.68947264 0 0 Z " fill="#F9FBFA" transform="translate(232,134)"/>
<path d="M0 0 C19.76735575 16.3180185 33.36289463 39.80015341 36.1315918 65.45410156 C37.32293481 78.68721959 37.32293481 78.68721959 33.90234375 82.83984375 C31.61293342 84.33262541 29.47554157 85.47086456 26.91015625 86.40234375 C26.88828247 85.55808838 26.88828247 85.55808838 26.8659668 84.69677734 C26.03355641 55.83007947 18.956194 31.30496451 -2.71484375 10.83984375 C-11.43542543 3.32529996 -20.59040343 -2.3120187 -31.27734375 -6.53515625 C-31.98890625 -6.81762207 -32.70046875 -7.10008789 -33.43359375 -7.39111328 C-53.39781361 -14.83207365 -78.65513253 -14.33787761 -98.22265625 -5.8671875 C-111.15534503 0.09951603 -122.36596722 7.9596591 -132.08984375 18.40234375 C-133.4185475 19.74029065 -134.75055813 21.0749894 -136.08984375 22.40234375 C-135.83203125 21.76039062 -135.57421875 21.1184375 -135.30859375 20.45703125 C-134.63981692 18.78080215 -133.97606331 17.10241732 -133.3359375 15.41503906 C-129.40153246 5.14441196 -126.40165877 -2.56483407 -116.08984375 -7.59765625 C-114.87687862 -8.26062659 -113.66607815 -8.92756695 -112.45703125 -9.59765625 C-76.21149925 -29.18168143 -32.47144939 -25.18108527 0 0 Z " fill="#F9FBFA" transform="translate(379.08984375,94.59765625)"/>
<path d="M0 0 C1.1034375 -0.02578125 2.206875 -0.0515625 3.34375 -0.078125 C8.73992504 0.48286349 11.75666966 3.1707301 15.1875 7.1875 C15.76886719 7.85652344 16.35023438 8.52554688 16.94921875 9.21484375 C19.95294588 13.15676272 20.97372387 16.16876841 20.8046875 21.23046875 C20.18695381 25.32493433 18.06265275 27.84319133 15.05078125 30.5546875 C4.13262721 38.45501469 -10.94111529 40.50217543 -23.9375 38.9609375 C-27.36605312 38.31808379 -29.33757895 37.40387258 -31.875 35 C-34.96016234 29.77895604 -36.04193814 25.31970712 -35.5 19.25 C-32.35876594 11.51930059 -26.04916504 7.48929281 -18.73046875 3.88671875 C-12.45789718 1.30057605 -6.80637147 0.09541642 0 0 Z " fill="#FCFDFD" transform="translate(419.5,219.75)"/>
<path d="M0 0 C5.12970829 2.89498389 9.88153051 6.89050428 11.58203125 12.703125 C11.99120754 18.14612124 10.09913953 21.98948629 6.90625 26.296875 C0.06810145 33.94908886 -8.35395245 40.24297631 -18.734375 41.28515625 C-20.75945043 41.39678492 -22.78568558 41.48891502 -24.8125 41.5625 C-25.83988281 41.63404297 -26.86726563 41.70558594 -27.92578125 41.77929688 C-35.37938069 42.10484522 -35.37938069 42.10484522 -38.6875 39.17578125 C-41.4328086 33.83334831 -42.54952659 29.53656636 -42.0625 23.5 C-34.65407836 10.05508666 -16.64446236 -7.35076451 0 0 Z " fill="#FCFDFD" transform="translate(442.0625,174.5)"/>
<path d="M0 0 C4.29 0 8.58 0 13 0 C12.36944679 6.55111595 11.30163814 12.87743139 9.9375 19.3125 C9.56797646 21.05782744 9.20195341 22.80390057 8.83984375 24.55078125 C8.67863037 25.31044189 8.51741699 26.07010254 8.35131836 26.8527832 C7.8923542 29.29529063 7.8923542 29.29529063 8 33 C8.95261719 32.18015625 9.90523437 31.3603125 10.88671875 30.515625 C12.15360769 29.42703894 13.42053691 28.33849976 14.6875 27.25 C15.31333984 26.71117187 15.93917969 26.17234375 16.58398438 25.6171875 C17.81991273 24.55597153 19.06166018 23.50149252 20.30932617 22.45410156 C21.72651199 21.23521943 23.07588131 19.93809118 24.40625 18.625 C28.18321394 16.25870934 31.45627059 16.56012244 35.8125 16.75 C36.99489258 16.77707031 36.99489258 16.77707031 38.20117188 16.8046875 C40.13464261 16.85155952 42.06748285 16.9232959 44 17 C37.35662488 23.72626928 30.32480007 30.02450521 23 36 C23.64923642 39.35911365 24.9284791 41.79499246 26.72265625 44.6953125 C27.26083984 45.57574219 27.79902344 46.45617187 28.35351562 47.36328125 C28.91748047 48.27464844 29.48144531 49.18601562 30.0625 50.125 C31.18237442 51.93764577 32.29846468 53.75263672 33.41015625 55.5703125 C33.90652588 56.37227051 34.40289551 57.17422852 34.91430664 58.00048828 C36 60 36 60 36 62 C31.00739677 62.88801243 25.861533 63.7968166 21 62 C16.63058743 58.05226787 14.21772126 52.3489754 12 47 C12 46.34 12 45.68 12 45 C7.87587966 47.32165445 4.68136076 49.38204562 2.80078125 53.84765625 C2.089121 56.53807916 1.53296462 59.26855634 1 62 C-3.29 62 -7.58 62 -12 62 C-10.46456102 51.42786282 -8.54636505 40.95109626 -6.54101562 30.45947266 C-5.99722446 27.61045849 -5.45937337 24.76036351 -4.921875 21.91015625 C-4.57327338 20.07805709 -4.2243273 18.24602343 -3.875 16.4140625 C-3.71660645 15.57227448 -3.55821289 14.73048645 -3.39501953 13.8631897 C-2.48922824 9.15382348 -1.39169723 4.58998374 0 0 Z " fill="#44936F" transform="translate(118,311)"/>
<path d="M0 0 C1.875 1.0625 1.875 1.0625 3 3 C3.40234375 6.28515625 3.40234375 6.28515625 3 10 C1.24337795 12.1766172 -0.19007877 13.64783052 -2.3125 15.375 C-3.13065186 16.08088257 -3.13065186 16.08088257 -3.96533203 16.80102539 C-5.62591202 18.22345273 -7.30818043 19.61495833 -9 21 C-9.90878906 21.75410156 -10.81757813 22.50820312 -11.75390625 23.28515625 C-13.52431792 24.73895182 -15.30187883 26.1840782 -17.0859375 27.62109375 C-21.04718635 30.85487465 -24.91385704 34.19376482 -28.77954102 37.54077148 C-31.5797374 39.9571669 -34.39435361 42.33694261 -37.30078125 44.625 C-38.29464844 45.40875 -39.28851563 46.1925 -40.3125 47 C-41.63701172 48.0209375 -41.63701172 48.0209375 -42.98828125 49.0625 C-45.21128729 51.20349223 -45.85772824 51.94662917 -46 55 C-45.38538434 58.28766502 -45.38538434 58.28766502 -44.3125 61.875 C-44.13114502 62.52903809 -43.94979004 63.18307617 -43.76293945 63.85693359 C-42.82253155 67.22622298 -41.82900532 70.57723263 -40.8046875 73.921875 C-40.43601562 75.14390625 -40.06734375 76.3659375 -39.6875 77.625 C-39.34074219 78.73101562 -38.99398438 79.83703125 -38.63671875 80.9765625 C-37.97047895 84.1401797 -37.91911932 85.96501484 -39 89 C-42.08888522 91.05925681 -42.70935927 91.2390374 -46.1875 91.125 C-47.445625 91.08375 -48.70375 91.0425 -50 91 C-52.45790589 86.52855539 -53.82677242 82.20694147 -54.875 77.25 C-56.46018669 70.06382034 -58.34464379 63.01055944 -60.51318359 55.97753906 C-62.63598721 48.75048452 -62.63598721 48.75048452 -61 45 C-58.5859375 42.78125 -58.5859375 42.78125 -55.375 40.5 C-50.16391935 36.69493341 -45.21939441 32.69999635 -40.375 28.4375 C-35.27668193 23.96668714 -30.11706044 19.60455415 -24.84375 15.33984375 C-20.69926177 11.92974973 -16.64309896 8.41825494 -12.59350586 4.89624023 C-8.10798622 1.01599554 -6.01747735 -0.49122264 0 0 Z " fill="#43936E" transform="translate(374,122)"/>
<path d="M0 0 C2.64626006 2.13943398 4.22069041 3.83103562 6.125 6.6875 C6.0625 9.125 6.0625 9.125 5.125 11.6875 C-5.79083042 21.99801635 -24.57864308 23.20124103 -38.89453125 22.8671875 C-43.66163011 22.65198971 -47.39652052 22.3574415 -51.875 20.6875 C-54.46432176 17.84556148 -55.5954597 15.83361523 -56.5 12.125 C-55.52114445 8.30746335 -53.06252166 6.69215229 -49.875 4.6875 C-37.345096 -2.66511728 -12.80508932 -8.68982389 0 0 Z " fill="#FBFCFC" transform="translate(423.875,268.3125)"/>
<path d="M0 0 C16.83 0 33.66 0 51 0 C50 10 50 10 49 11 C47.58429877 11.08651611 46.164405 11.10704904 44.74609375 11.09765625 C43.89208984 11.09443359 43.03808594 11.09121094 42.15820312 11.08789062 C41.26037109 11.07951172 40.36253906 11.07113281 39.4375 11.0625 C38.53580078 11.05798828 37.63410156 11.05347656 36.70507812 11.04882812 C34.46998686 11.03700225 32.23502563 11.0205222 30 11 C29.96914307 11.65452148 29.93828613 12.30904297 29.90649414 12.98339844 C29.29199309 22.59670842 27.39053685 31.84122335 25.4375 41.25 C25.1041844 42.88138115 24.77149765 44.51289092 24.43945312 46.14453125 C23.63353251 50.09787194 22.81916269 54.04938289 22 58 C17.38 58 12.76 58 8 58 C8.65195685 48.85449413 10.55151998 40.05958869 12.5 31.125 C12.82470419 29.61468762 13.1489264 28.10427153 13.47265625 26.59375 C15.75540613 15.97837549 15.75540613 15.97837549 17 11 C11.06 11 5.12 11 -1 11 C-0.67 7.37 -0.34 3.74 0 0 Z " fill="#459470" transform="translate(15,315)"/>
<path d="M0 0 C0.83402344 -0.020625 1.66804688 -0.04125 2.52734375 -0.0625 C8.05088323 -0.09718471 11.82864319 0.72281677 16.75 3.25 C15.69124926 6.65312738 14.74097846 9.26353231 12.75 12.25 C12.20472656 12.105625 11.65945312 11.96125 11.09765625 11.8125 C5.69691432 10.4830866 0.31737086 9.48979675 -5.25 10.25 C-8.37474627 11.88473516 -8.37474627 11.88473516 -8.9375 14.375 C-9.040625 14.99375 -9.14375 15.6125 -9.25 16.25 C-8.30898437 16.43175781 -7.36796875 16.61351562 -6.3984375 16.80078125 C-5.15320313 17.05214844 -3.90796875 17.30351562 -2.625 17.5625 C-1.39523438 17.80613281 -0.16546875 18.04976563 1.1015625 18.30078125 C5.82540936 19.52979066 10.81350318 21.11493304 13.75 25.25 C14.50426174 29.61288651 14.20910773 33.87267681 12.8125 38.0625 C7.7215588 43.46198309 1.27735081 45.91701239 -6.01171875 46.453125 C-13.61540269 46.57494637 -20.38454964 45.68272518 -27.25 42.25 C-26.68454163 38.29179141 -25.44097652 35.5840947 -23.25 32.25 C-22.64414062 32.4665625 -22.03828125 32.683125 -21.4140625 32.90625 C-14.90615955 35.06887621 -7.53095199 37.15670387 -0.9609375 34.23046875 C-0.39632812 33.90691406 0.16828125 33.58335937 0.75 33.25 C0.75 32.26 0.75 31.27 0.75 30.25 C-0.41917969 29.93546875 -1.58835937 29.6209375 -2.79296875 29.296875 C-4.34132152 28.86521302 -5.88948903 28.43288614 -7.4375 28 C-8.20642578 27.79503906 -8.97535156 27.59007812 -9.76757812 27.37890625 C-14.3758307 26.07356432 -17.78092769 24.72580837 -21.25 21.25 C-22.45643566 17.63069302 -22.57268559 15.05768995 -22.25 11.25 C-17.33035319 1.59992357 -9.85859634 0.05983973 0 0 Z " fill="#44936F" transform="translate(86.25,327.75)"/>
<path d="M0 0 C4.84130025 0.55035976 8.48687166 2.82440193 12.5625 5.3125 C13.64905884 5.96387939 13.64905884 5.96387939 14.75756836 6.62841797 C16.3285499 7.57123985 17.89756668 8.51734144 19.46484375 9.46630859 C22.1592524 11.09634279 24.86014423 12.71520917 27.5625 14.33203125 C32.37903652 17.21466501 37.19098177 20.10484359 42 23 C40.8335158 26.80470079 39.55623932 30.04573999 37.375 33.375 C36.92898438 34.06335938 36.48296875 34.75171875 36.0234375 35.4609375 C35.68570313 35.96882813 35.34796875 36.47671875 35 37 C34.19820313 36.53851563 33.39640625 36.07703125 32.5703125 35.6015625 C25.6599721 31.63712685 18.72304688 27.72814153 11.75 23.875 C5.42127786 20.37565174 -0.84711175 16.80304148 -7 13 C-5.74361009 9.6476699 -4.31266112 6.69597385 -2.375 3.6875 C-1.92898438 2.99011719 -1.48296875 2.29273438 -1.0234375 1.57421875 C-0.51683594 0.79498047 -0.51683594 0.79498047 0 0 Z " fill="#FBFCFB" transform="translate(368,36)"/>
<path d="M0 0 C0.99 4.62 1.98 9.24 3 14 C-2.34778127 16.47701783 -7.58451029 18.02951033 -13.3125 19.375 C-21.07076206 21.24900784 -28.76660042 23.27571304 -36.4387207 25.47607422 C-41.79947654 27 -41.79947654 27 -44 27 C-44.50435694 25.0636296 -45.00333874 23.12585854 -45.5 21.1875 C-45.7784375 20.10855469 -46.056875 19.02960937 -46.34375 17.91796875 C-47 15 -47 15 -47 12 C-37.77543405 8.99006485 -28.44841238 6.50238601 -19.04858398 4.10693359 C-15.18387421 3.11715499 -11.38972372 2.13606539 -7.62109375 0.8203125 C-5 0 -5 0 0 0 Z " fill="#FAFCFB" transform="translate(296,27)"/>
<path d="M0 0 C0.33 1.98 0.66 3.96 1 6 C-0.68416016 6.48919922 -0.68416016 6.48919922 -2.40234375 6.98828125 C-9.98147446 9.19833242 -17.53602035 11.4215343 -25 14 C-25.33 11.03 -25.66 8.06 -26 5 C-23.27161565 4.18479365 -20.54235583 3.37275157 -17.8125 2.5625 C-16.65911133 2.21735352 -16.65911133 2.21735352 -15.48242188 1.86523438 C-4.32059659 -1.44019886 -4.32059659 -1.44019886 0 0 Z " fill="#F5F9F7" transform="translate(292,51)"/>
<path d="M0 0 C4.97357688 1.7342733 9.31498953 4.43327957 13.8125 7.125 C14.60076172 7.59292969 15.38902344 8.06085938 16.20117188 8.54296875 C18.13602454 9.69215397 20.06887228 10.84457003 22 12 C21.125 16.75 21.125 16.75 20 19 C15.43218669 17.37745627 11.48940202 15.01524967 7.375 12.5 C6.70726562 12.09652344 6.03953125 11.69304687 5.3515625 11.27734375 C2.53059697 9.56783864 -0.25515247 7.82989835 -3 6 C-1.125 1.125 -1.125 1.125 0 0 Z " fill="#F6FAF8" transform="translate(367,59)"/>
<path d="M0 0 C2.9375 0.875 2.9375 0.875 4.9375 3.875 C4.75 6.9375 4.75 6.9375 3.9375 9.875 C0.9375 11.875 0.9375 11.875 -1.625 11.625 C-4.0625 10.875 -4.0625 10.875 -6.0625 8.875 C-6.39552312 5.7445827 -6.53921956 3.69601702 -4.9375 0.9375 C-3.0625 -0.125 -3.0625 -0.125 0 0 Z " fill="#4B9774" transform="translate(258.0625,128.125)"/>
<path d="M0 0 C2.72274244 0.95295985 3.97489421 1.41788511 5.5 3.875 C5.375 6.9375 5.375 6.9375 4.5 9.875 C1.5 11.875 1.5 11.875 -1.625 11.625 C-3.048125 11.25375 -3.048125 11.25375 -4.5 10.875 C-5.89935013 8.07629973 -5.75265405 5.97001208 -5.5 2.875 C-3.85007404 0.18301554 -3.1686832 -0.15843416 0 0 Z " fill="#4B9774" transform="translate(282.5,230.125)"/>
<path d="M0 0 C1.10758667 0.03927612 1.10758667 0.03927612 2.23754883 0.0793457 C3.44121094 0.10351562 3.44121094 0.10351562 4.66918945 0.12817383 C5.50256836 0.17006836 6.33594727 0.21196289 7.19458008 0.25512695 C8.03956055 0.27768555 8.88454102 0.30024414 9.75512695 0.32348633 C11.83986806 0.38237732 13.92369812 0.47205897 16.00708008 0.56762695 C16.33708008 2.21762695 16.66708008 3.86762695 17.00708008 5.56762695 C9.74708008 5.56762695 2.48708008 5.56762695 -4.99291992 5.56762695 C-1.99291992 0.56762695 -1.99291992 0.56762695 0 0 Z " fill="#F7FAF9" transform="translate(258.992919921875,340.432373046875)"/>
<path d="M0 0 C2 2 2 2 2.3125 4.9375 C2 8 2 8 0.8125 9.875 C-1.65507108 11.40659584 -3.14519831 11.42822025 -6 11 C-7.875 9.9375 -7.875 9.9375 -9 8 C-8.8125 4.375 -8.8125 4.375 -8 1 C-5.23749964 -0.38125018 -3.05268901 -0.19079306 0 0 Z " fill="#469471" transform="translate(359,103)"/>
<path d="M0 0 C1.8125 1.125 1.8125 1.125 3 3 C3.3125 6.0625 3.3125 6.0625 3 9 C1 11 1 11 -2.5 11.3125 C-4.2325 11.1578125 -4.2325 11.1578125 -6 11 C-8.15502531 7.76746204 -8.46856135 6.74849077 -8 3 C-5.85607122 -0.27231235 -3.76836426 -0.56525464 0 0 Z " fill="#479571" transform="translate(306,95)"/>
<path d="M0 0 C3.5625 0.1875 3.5625 0.1875 5.5625 2.1875 C5.89552312 5.3179173 6.03921956 7.36648298 4.4375 10.125 C2.5625 11.1875 2.5625 11.1875 -0.5 11.0625 C-3.4375 10.1875 -3.4375 10.1875 -5.4375 7.1875 C-4.7446298 0.25879799 -4.7446298 0.25879799 0 0 Z " fill="#499673" transform="translate(390.4375,147.8125)"/>
<path d="M0 0 C1.875 1.0625 1.875 1.0625 3 3 C2.8125 6.625 2.8125 6.625 2 10 C-0.78863007 11.39431504 -2.92078868 11.25660094 -6 11 C-8.15502531 7.76746204 -8.46856135 6.74849077 -8 3 C-5.85607122 -0.27231235 -3.76836426 -0.56525464 0 0 Z " fill="#479571" transform="translate(386,204)"/>
<path d="M0 0 C3.0625 0.3125 3.0625 0.3125 5 1.4375 C6.0625 3.3125 6.0625 3.3125 5.9375 6.375 C5.0625 9.3125 5.0625 9.3125 2.0625 11.3125 C-1.25990324 10.9883631 -2.54526303 10.70473697 -4.9375 8.3125 C-5.1875 5.3125 -5.1875 5.3125 -4.9375 2.3125 C-2.9375 0.3125 -2.9375 0.3125 0 0 Z " fill="#469470" transform="translate(337.9375,238.6875)"/>
<path d="M0 0 C3.0625 0.3125 3.0625 0.3125 5 1.4375 C6.0625 3.3125 6.0625 3.3125 5.875 6.375 C5.0625 9.3125 5.0625 9.3125 3.0625 11.3125 C0.25265752 11.67273622 -1.31991919 11.69582602 -3.75 10.1875 C-5.46599028 7.47804166 -5.271228 5.44954316 -4.9375 2.3125 C-2.9375 0.3125 -2.9375 0.3125 0 0 Z " fill="#459470" transform="translate(247.9375,184.6875)"/>
<path d="M0 0 C0.33 2.97 0.66 5.94 1 9 C-1.3125 10.5625 -1.3125 10.5625 -4 12 C-4.99 11.67 -5.98 11.34 -7 11 C-8.74672985 7.5065403 -10 4.93154432 -10 1 C-5.8922935 -0.58706842 -4.40767604 -1.10191901 0 0 Z " fill="#F5F9F7" transform="translate(261,59)"/>
<path d="M0 0 C0.99 0.99 1.98 1.98 3 3 C3 3.99 3 4.98 3 6 C1.03533587 7.06775224 -0.96855359 8.06553465 -3 9 C-3.66 8.67 -4.32 8.34 -5 8 C-3.35 5.36 -1.7 2.72 0 0 Z " fill="#EEF5F2" transform="translate(397,213)"/>
</svg>
